<svg width="64" height="64" viewBox="0 0 64 64" fill="none" xmlns="http://www.w3.org/2000/svg">
<g clip-path="url(#clip0_1_2)">
<path d="M32 64C49.6731 64 64 49.6731 64 32C64 14.3269 49.6731 0 32 0C14.3269 0 0 14.3269 0 32C0 49.6731 14.3269 64 32 64Z" fill="white"/>
<path fill-rule="evenodd" clip-rule="evenodd" d="M6.6 30.5C7 36 7.5 41.4 8 45.5C8.2 47.6 8.5 49.3 8.8 50.5C8.9 51.1 9 51.6 9.2 52C9.3 52.2 9.4 52.4 9.5 52.6C9.6 52.8 10 53.1 10.6 53.1C11.1 53.1 11.5 52.8 11.6 52.6C11.7 52.4 11.8 52.2 11.9 52.1C12.1 51.7 12.2 51.3 12.3 50.8C12.5 49.8 12.7 48.3 12.8 46.6C13.1 43.2 13.3 38.6 13.6 34.1C13.8 29.6 14.1 25 14.4 21.6C14.5 20.4 14.7 19.7 14.8 18.9C14.9 19.5 15 19.9 15.1 20.7C15.4 23.5 15.7 27.3 15.9 31C16.1 34.8 16.3 38.5 16.6 41.4C16.8 42.8 16.9 44 17.1 44.9C17.2 45.3 17.3 45.7 17.5 46.1C17.6 46.3 17.7 46.4 17.9 46.6C18.1 46.8 18.4 47 18.9 47C19.6 47 20 46.6 20.2 46.3C20.4 46 20.5 45.7 20.7 45.3C20.9 44.5 21.1 43.5 21.3 42.4C21.6 40 21.9 36.9 22.1 33.8C22.4 30.7 22.6 27.6 22.9 25.3C23 24.8 23.1 24.5 23.1 24.1C23.2 24.4 23.2 24.5 23.3 24.8C23.6 26.7 23.9 29.2 24.2 31.7C24.5 34.2 24.7 36.8 25.1 38.7C25.3 39.7 25.4 40.5 25.7 41.1C25.8 41.4 25.9 41.7 26.1 42C26.3 42.3 26.7 42.7 27.3 42.7C27.9 42.7 28.3 42.4 28.5 42.2C28.7 42 28.8 41.7 29 41.4C29.2 40.8 29.4 40.2 29.6 39.4C30 37.8 30.3 35.7 30.6 33.6C30.9 31.5 31.2 29.4 31.6 27.9C31.7 27.6 31.7 27.4 31.8 27.2C31.8 27.3 31.8 27.3 31.9 27.4C32.2 28.6 32.4 30.3 32.7 32C32.9 33.7 33.2 35.4 33.5 36.7C33.7 37.4 33.9 37.9 34.1 38.4C34.2 38.6 34.4 38.9 34.6 39.1C34.8 39.3 35.3 39.5 35.7 39.5C36.5 39.5 37 39 37.3 38.6C37.6 38.2 37.8 37.7 37.9 37.1C38.2 36 38.5 34.6 38.7 33.2C38.9 31.8 39.2 30.5 39.5 29.5C39.6 29.1 39.8 28.9 39.9 28.7C40 28.8 40.1 29 40.2 29.3C40.5 30 40.8 31.1 41.1 32.2C41.4 33.3 41.6 34.4 41.9 35.3C42.1 35.7 42.2 36.1 42.5 36.5C42.8 36.9 43.2 37.3 44 37.3C44.6 37.3 45.1 37 45.4 36.7C45.7 36.4 45.9 36.1 46.1 35.7C46.5 35 46.8 34.1 47.1 33.2C47.4 32.3 47.7 31.5 48 30.9C48.1 30.8 48.1 30.7 48.2 30.6C48.2 30.7 48.3 30.7 48.3 30.7C48.5 31.1 48.8 31.8 49.1 32.5C49.4 33.2 49.7 33.9 50.1 34.5C50.3 34.8 50.5 35.1 50.9 35.4C51.3 35.7 51.7 35.9 52.2 35.9C53.2 35.9 53.8 35.3 54.2 34.8C54.6 34.3 54.9 33.7 55.2 33.1C55.5 32.6 55.8 32 56 31.7C56.2 31.4 56.3 31.4 56.3 31.4C56.4 31.4 56.5 31.4 56.7 31.7C56.9 32 57.2 32.3 57.6 32.8C58 33.3 58.2 33.7 58.7 34.2C59.2 34.7 59.9 35.1 60.7 35.1C63 33.9 63.5 31.9 62 32.3C61.7 32.6 61.5 32.9 61.3 33.1C61.1 33.3 61 33.3 60.8 33.3C60.7 33.3 60.6 33.3 60.4 33C60.2 32.8 59.9 32.4 59.5 31.9C59.2 31.5 58.9 31 58.4 30.5C57.9 30.1 57.3 29.6 56.4 29.6C55.4 29.6 54.8 30.2 54.3 30.7C53.8 31.2 53.6 31.8 53.3 32.4C53 32.9 52.7 33.5 52.5 33.8C52.3 34.1 52.3 34 52.3 34C52.2 33.9 52.1 33.8 52 33.7C51.7 33.3 51.5 32.6 51.2 32C50.9 31.3 50.7 30.6 50.3 30C50.1 29.7 49.9 29.4 49.6 29.1C49.3 28.8 48.8 28.6 48.3 28.6C47.7 28.6 47.2 28.9 46.9 29.2C46.6 29.5 46.4 29.8 46.2 30.2C45.8 30.9 45.5 31.8 45.2 32.7C44.9 33.6 44.6 34.4 44.3 35C44.3 35 44.3 35 44.2 35.1C44.2 35 44.1 35 44.1 34.8C43.8 34 43.6 33 43.3 31.9C43 30.8 42.7 29.7 42.3 28.7C42.1 28.2 41.9 27.8 41.5 27.5C41.2 27.1 40.6 26.8 39.9 26.8C39.1 26.8 38.6 27.3 38.2 27.7C37.8 28.1 37.7 28.6 37.5 29.2C37.1 30.3 36.9 31.7 36.6 33.1C36.4 34.5 36.1 35.8 35.8 36.8C35.8 37 35.7 37 35.7 37.2C35.6 37 35.5 36.8 35.5 36.5C35.2 35.3 34.9 33.6 34.7 32C34.5 30.3 34.2 28.6 33.9 27.3C33.7 26.6 33.6 26.1 33.3 25.6C33.2 25.4 33 25.1 32.8 24.9C32.6 24.7 32.2 24.5 31.7 24.5C31.1 24.5 30.7 24.8 30.5 25C30.3 25.2 30.2 25.5 30 25.8C29.8 26.4 29.6 27 29.4 27.8C29 29.4 28.7 31.5 28.4 33.6C28.1 35.7 27.8 37.8 27.4 39.3C27.4 39.4 27.3 39.5 27.3 39.6C27.2 39.3 27.2 39.1 27.1 38.8C26.8 36.9 26.5 34.4 26.2 31.9C25.9 29.4 25.6 26.8 25.3 24.9C25.1 23.9 24.9 23.1 24.7 22.4C24.6 22.1 24.5 21.8 24.3 21.5C24.1 21.2 23.7 20.9 23.1 20.8C22.7 20.8 22.4 20.9 22.2 21.1C22 21.2 21.9 21.4 21.8 21.6C21.6 21.9 21.5 22.2 21.4 22.6C21.2 23.3 21 24.3 20.8 25.5C20.5 27.8 20.2 30.9 20 34C19.7 37.1 19.5 40.2 19.2 42.5C19.1 42.9 19.1 43.1 19 43.5C18.9 42.9 18.8 42.5 18.7 41.7C18.4 38.9 18.2 35.1 18 31.4C17.8 27.6 17.5 23.8 17.2 21C17 19.6 16.8 18.4 16.6 17.5C16.5 17 16.3 16.7 16.1 16.3C16 16.1 15.9 16 15.7 15.8C15.5 15.6 15.1 15.5 14.8 15.5C14.3 15.5 14 15.7 13.8 15.9C13.6 16.1 13.5 16.3 13.4 16.5C13.2 16.9 13.1 17.3 13 17.8C12.8 18.9 12.6 20.3 12.4 22C12.1 25.4 11.8 30 11.6 34.5C11.4 39 11.1 43.6 10.9 47C10.8 47.7 10.8 48 10.7 48.6C10.6 47.7 10.4 47 10.3 45.9C9.8 41.8 9.4 36.4 9 31C7.2 -0.500004 5.1 9.1 6.6 30.5Z" fill="#020887"/>
<path d="M49.6529 14.7574L49.6531 14.7575L49.6552 14.7533C49.7501 14.5635 49.9359 14.381 50.2105 14.381C50.4984 14.381 50.8116 14.5016 51.0149 14.681C51.1162 14.7704 51.1875 14.872 51.217 14.9773C51.2461 15.081 51.2356 15.1918 51.1677 15.305C51.1677 15.3051 51.1677 15.3052 51.1676 15.3052L27.9679 53.0048L27.9676 53.0052C27.7474 53.3723 27.4947 53.5551 27.2567 53.612C27.0189 53.6689 26.7876 53.6023 26.6044 53.4545C26.237 53.1583 26.0664 52.5372 26.4521 51.9587L26.4529 51.9574L49.6529 14.7574Z" fill="#020887" stroke="white" stroke-width="0.1"/>
<path d="M51.7789 12.7336L49.6678 23.0015C48.555 20.5983 46.1145 19.0895 43.4516 19.2211L51.7789 12.7336Z" fill="#020887" stroke="white"/>
<path d="M47.4 32C47.4 36.5287 43.7287 40.2 39.2 40.2C34.6713 40.2 31 36.5287 31 32C31 27.4713 34.6713 23.8 39.2 23.8C43.7287 23.8 47.4 27.4713 47.4 32Z" fill="#020887" stroke="white"/>
</g>
<defs>
<clipPath id="clip0_1_2">
<rect width="64" height="64" fill="white"/>
</clipPath>
</defs>
</svg>
