<svg width="1386" height="1327" viewBox="0 0 1386 1327" fill="none" xmlns="http://www.w3.org/2000/svg">
<rect width="1386" height="1327" rx="100" fill="white"/>
<path d="M655.2 372.965C651.2 374.565 648 379.499 648 384.165C648 387.365 650.933 390.965 664.667 404.965L681.333 421.765V436.965C681.333 448.965 681.867 453.365 683.733 456.965C686.4 462.432 692 464.565 697.733 462.432C703.467 460.165 705.333 454.032 705.333 436.699V421.765L722 404.965C735.733 390.965 738.667 387.365 738.667 384.165C738.667 376.165 731.333 370.432 724.4 373.099C722.267 373.765 714.533 380.565 707.067 388.032L693.333 401.632L679.733 388.032C663.067 371.632 661.2 370.565 655.2 372.965Z" fill="black"/>
<path d="M688.133 499.099C685.2 500.299 683.733 502.165 682.8 505.899C681.867 509.232 681.333 546.032 681.2 615.632V720.299L581.867 791.632C527.2 830.832 481.6 863.899 480.533 865.099C479.467 866.299 478.267 869.365 477.733 872.032C477.2 875.899 477.6 877.365 480.533 880.165C483.733 883.499 484.533 883.632 494.4 883.232L504.933 882.699L601.867 812.565L698.8 742.299L799.733 811.365C855.2 849.365 901.867 881.232 903.333 882.032C908 884.432 923.2 883.632 927.867 880.832C931.2 878.832 932 877.499 932 873.632C932 870.432 930.933 867.899 929.067 865.899C927.333 864.299 878.8 830.699 821.067 791.232L716 719.499V615.099C716 557.632 715.6 508.699 715.2 506.432C714.667 504.032 713.067 501.365 711.467 500.299C707.6 497.899 692.933 497.099 688.133 499.099Z" fill="black"/>
<path d="M359.2 862.299C351.867 865.232 350 874.432 355.2 880.565L358.4 884.299L380.533 884.965L402.667 885.632L377.333 910.965C354 934.299 352 936.699 352 940.965C352.133 946.165 353.867 949.099 358.267 951.365C362.133 953.499 429.867 953.632 435.867 951.499C440.8 949.765 442.667 946.832 442.667 940.699C442.533 930.832 437.467 928.965 410.667 928.965H391.333L416.667 903.632C442.533 877.899 444 875.765 442.133 868.165C440.4 861.632 436.533 860.965 397.733 861.099C378.133 861.099 360.667 861.632 359.2 862.299Z" fill="black"/>
<path d="M952 861.899C947.333 863.632 944 868.165 944 872.699C944 876.832 945.6 879.099 958.667 892.165L973.2 906.965L958.667 921.765C945.6 934.832 944 937.099 944 941.232C944 944.299 944.933 946.699 947.067 948.565C954.533 955.365 958.4 953.765 975.733 936.565L989.333 922.965L1004 937.632C1017.2 950.832 1019.07 952.165 1023.47 952.165C1029.47 952.165 1034.67 946.832 1034.67 940.699C1034.67 937.232 1032.27 934.165 1020.13 921.765L1005.47 906.965L1020.13 892.032C1032.13 879.765 1034.67 876.432 1034.67 873.099C1034.67 867.099 1029.47 861.765 1023.47 861.765C1019.07 861.765 1017.2 863.099 1004 876.299L989.333 890.965L975.733 877.365C959.6 861.632 957.2 860.032 952 861.899Z" fill="black"/>
</svg>
