<svg width="683" height="582" viewBox="0 0 683 582" fill="none" xmlns="http://www.w3.org/2000/svg">
<g clip-path="url(#clip0_14_2)">
<path d="M303.2 0.96521C299.2 2.56521 296 7.49854 296 12.1652C296 15.3652 298.933 18.9652 312.667 32.9652L329.333 49.7652V64.9652C329.333 76.9652 329.867 81.3652 331.733 84.9652C334.4 90.4319 340 92.5652 345.733 90.4319C351.467 88.1652 353.333 82.0319 353.333 64.6985V49.7652L370 32.9652C383.733 18.9652 386.667 15.3652 386.667 12.1652C386.667 4.16521 379.333 -1.56812 372.4 1.09854C370.267 1.76521 362.533 8.56521 355.067 16.0319L341.333 29.6319L327.733 16.0319C311.067 -0.368118 309.2 -1.43479 303.2 0.96521Z" fill="white"/>
<path d="M336.133 127.099C333.2 128.299 331.733 130.165 330.8 133.899C329.867 137.232 329.333 174.032 329.2 243.632V348.299L229.867 419.632C175.2 458.832 129.6 491.899 128.533 493.099C127.467 494.299 126.267 497.365 125.733 500.032C125.2 503.899 125.6 505.365 128.533 508.165C131.733 511.499 132.533 511.632 142.4 511.232L152.933 510.699L249.867 440.565L346.8 370.299L447.733 439.365C503.2 477.365 549.867 509.232 551.333 510.032C556 512.432 571.2 511.632 575.867 508.832C579.2 506.832 580 505.499 580 501.632C580 498.432 578.933 495.899 577.067 493.899C575.333 492.299 526.8 458.699 469.067 419.232L364 347.499V243.099C364 185.632 363.6 136.699 363.2 134.432C362.667 132.032 361.067 129.365 359.467 128.299C355.6 125.899 340.933 125.099 336.133 127.099Z" fill="white"/>
<path d="M7.2 490.299C-0.133333 493.232 -2 502.432 3.2 508.565L6.4 512.299L28.5333 512.965L50.6667 513.632L25.3333 538.965C2 562.299 0 564.699 0 568.965C0.133333 574.165 1.86667 577.099 6.26667 579.365C10.1333 581.499 77.8667 581.632 83.8667 579.499C88.8 577.765 90.6667 574.832 90.6667 568.699C90.5333 558.832 85.4667 556.965 58.6667 556.965H39.3333L64.6667 531.632C90.5333 505.899 92 503.765 90.1333 496.165C88.4 489.632 84.5333 488.965 45.7333 489.099C26.1333 489.099 8.66667 489.632 7.2 490.299Z" fill="white"/>
<path d="M600 489.899C595.333 491.632 592 496.165 592 500.699C592 504.832 593.6 507.099 606.667 520.165L621.2 534.965L606.667 549.765C593.6 562.832 592 565.099 592 569.232C592 572.299 592.933 574.699 595.067 576.565C602.533 583.365 606.4 581.765 623.733 564.565L637.333 550.965L652 565.632C665.2 578.832 667.067 580.165 671.467 580.165C677.467 580.165 682.667 574.832 682.667 568.699C682.667 565.232 680.267 562.165 668.133 549.765L653.467 534.965L668.133 520.032C680.133 507.765 682.667 504.432 682.667 501.099C682.667 495.099 677.467 489.765 671.467 489.765C667.067 489.765 665.2 491.099 652 504.299L637.333 518.965L623.733 505.365C607.6 489.632 605.2 488.032 600 489.899Z" fill="white"/>
</g>
<defs>
<clipPath id="clip0_14_2">
<rect width="682.625" height="581.032" fill="white"/>
</clipPath>
</defs>
</svg>
