<?xml version="1.0" standalone="no"?>
<!DOCTYPE svg PUBLIC "-//W3C//DTD SVG 20010904//EN"
 "http://www.w3.org/TR/2001/REC-SVG-20010904/DTD/svg10.dtd">
<svg version="1.0" xmlns="http://www.w3.org/2000/svg"
 width="534.134775pt" height="414.888137pt" viewBox="0 0 534.134775 414.888137"
 preserveAspectRatio="xMidYMid meet">
<metadata>
Created by potrace 1.12, written by Peter Selinger 2001-2015
</metadata>
<g transform="translate(-120.000000,514.888137) scale(0.100000,-0.100000)"
fill="#000000" stroke="none">
<path d="M3819 5149 c-1 -2 -3 -14 -4 -25 -2 -19 -1357 -2180 -1375 -2194 -4
-3 -9 -10 -11 -17 -2 -6 -269 -432 -594 -947 -496 -787 -594 -936 -612 -936
-13 0 -23 -4 -23 -8 0 -8 2861 -22 4538 -22 l803 0 -7 23 c-4 12 -10 24 -14
27 -7 5 -2467 3740 -2627 3989 -40 62 -74 112 -74 110z m924 -1439 c266 -404
483 -736 482 -737 -1 -2 -465 -9 -1031 -17 -566 -8 -1186 -18 -1378 -21 -287
-5 -347 -4 -340 7 22 38 1338 2125 1347 2136 8 10 63 -66 223 -310 117 -178
431 -654 697 -1058z m505 -772 c6 -7 292 -440 635 -963 l625 -950 -916 -2
c-504 -2 -1683 1 -2619 5 l-1702 7 590 935 590 935 212 6 c117 4 657 12 1202
18 545 7 1006 13 1025 15 19 1 105 3 191 4 115 2 159 -1 167 -10z"/>
<path d="M3893 3913 c-34 -3 -43 -8 -43 -23 0 -15 9 -19 43 -22 l42 -3 3 -115
3 -114 -23 21 c-75 68 -165 53 -225 -36 -69 -102 -49 -270 39 -333 25 -18 46
-23 90 -23 49 0 61 4 87 29 l31 30 0 -27 c0 -27 0 -27 75 -27 68 0 75 2 75 20
0 14 -7 20 -23 20 -46 0 -47 7 -47 317 l0 293 -42 -2 c-24 -1 -62 -3 -85 -5z
m-20 -274 c44 -20 62 -65 62 -159 0 -97 -18 -141 -68 -161 -67 -28 -117 24
-124 128 -11 145 47 230 130 192z"/>
<path d="M3800 1985 c0 -617 3 -935 10 -935 7 0 10 318 10 935 0 617 -3 935
-10 935 -7 0 -10 -318 -10 -935z"/>
<path d="M2830 2019 c0 -65 -54 -149 -96 -149 -8 0 -14 -9 -14 -20 0 -16 7
-20 34 -20 l35 0 3 -165 c3 -188 9 -202 86 -212 79 -11 132 34 147 125 6 38 5
42 -13 42 -16 0 -22 -9 -27 -41 -12 -71 -67 -103 -99 -57 -13 18 -16 52 -16
165 l0 143 65 0 c58 0 65 2 65 20 0 18 -7 20 -65 20 l-65 0 0 85 c0 78 -2 85
-20 85 -14 0 -20 -7 -20 -21z"/>
<path d="M4610 1936 c0 -8 11 -17 24 -20 20 -5 37 -35 104 -193 59 -141 83
-188 96 -188 13 0 34 42 85 168 68 168 88 201 122 212 11 4 19 13 19 21 0 11
-19 14 -90 14 -70 0 -90 -3 -90 -14 0 -7 14 -16 30 -19 23 -5 30 -12 30 -29 0
-26 -71 -211 -83 -218 -5 -3 -28 40 -51 95 -64 148 -63 144 -27 151 17 4 31
13 31 20 0 11 -22 14 -100 14 -79 0 -100 -3 -100 -14z"/>
</g>
</svg>
