<?xml version="1.0" standalone="no"?>
<!DOCTYPE svg PUBLIC "-//W3C//DTD SVG 20010904//EN"
 "http://www.w3.org/TR/2001/REC-SVG-20010904/DTD/svg10.dtd">
<svg version="1.0" xmlns="http://www.w3.org/2000/svg"
 width="350.013037pt" height="296.988148pt" viewBox="0 0 350.013037 296.988148"
 preserveAspectRatio="xMidYMid meet">
<metadata>
Created by potrace 1.12, written by Peter Selinger 2001-2015
</metadata>
<g transform="translate(-16.333333,327.988148) scale(0.100000,-0.100000)"
fill="#000000" stroke="none">
<path d="M372 3226 c-17 -30 -32 -57 -32 -60 0 -3 11 -6 25 -6 l25 0 0 -1313
c0 -1239 1 -1313 18 -1323 9 -6 49 -9 87 -7 39 2 739 6 1558 9 l1487 5 0 -32
0 -31 61 34 c33 19 62 38 62 42 1 4 -26 23 -60 42 l-63 35 0 -30 0 -31 -1327
1 c-1322 0 -1328 0 -1258 19 206 56 454 168 631 287 605 405 1027 1099 1259
2072 20 84 35 154 33 156 -2 2 -15 6 -31 10 -23 6 -27 4 -27 -13 0 -43 -94
-395 -154 -577 -333 -1008 -920 -1654 -1702 -1874 -148 -41 -265 -60 -416 -68
l-128 -6 0 1296 0 1297 30 0 31 0 -33 60 c-18 33 -35 60 -38 60 -3 0 -20 -24
-38 -54z"/>
<path d="M240 3027 c-28 -14 -37 -46 -20 -76 12 -24 77 -30 98 -9 13 13 16 47
6 72 -11 29 -23 17 -21 -20 1 -22 -3 -39 -10 -41 -9 -3 -13 9 -13 41 0 50 -3
52 -40 33z m20 -49 c0 -29 -2 -31 -15 -17 -9 9 -13 23 -9 32 10 28 24 19 24
-15z"/>
<path d="M226 2895 c-20 -21 -21 -59 0 -79 18 -19 75 -21 92 -4 17 17 15 64
-4 83 -23 22 -30 10 -13 -21 12 -23 11 -27 -6 -40 -10 -8 -22 -14 -25 -14 -3
0 -15 6 -25 14 -17 13 -18 17 -6 40 17 31 10 43 -13 21z"/>
<path d="M222 2758 c-15 -15 -15 -41 0 -56 9 -9 9 -12 0 -12 -7 0 -12 -7 -12
-15 0 -12 13 -15 60 -15 47 0 60 3 60 15 0 11 -12 15 -44 15 -31 0 -46 5 -50
16 -10 26 2 34 50 34 32 0 44 4 44 15 0 19 -90 21 -108 3z"/>
<path d="M222 2618 c-15 -15 -15 -61 0 -76 16 -16 28 -15 28 3 0 8 -4 15 -10
15 -5 0 -10 9 -10 20 0 11 7 20 15 20 9 0 15 -9 15 -24 0 -28 22 -49 47 -44
14 3 18 13 19 51 l1 47 -47 0 c-25 0 -51 -5 -58 -12z m91 -31 c3 -8 1 -20 -4
-28 -8 -12 -12 -11 -24 5 -8 11 -15 23 -15 28 0 14 38 9 43 -5z"/>
<path d="M210 2500 c0 -5 -7 -10 -15 -10 -8 0 -15 -7 -15 -15 0 -8 6 -15 14
-15 8 0 17 -6 19 -12 4 -10 7 -10 14 -1 5 6 29 13 53 15 38 2 46 7 48 26 2 12
-1 22 -7 22 -6 0 -11 -4 -11 -10 0 -5 -18 -10 -40 -10 -22 0 -40 5 -40 10 0 6
-4 10 -10 10 -5 0 -10 -4 -10 -10z"/>
<path d="M271 2408 c-5 -13 -12 -31 -15 -40 -3 -10 -10 -18 -16 -18 -13 0 -13
26 0 51 8 15 7 19 -4 19 -31 0 -36 -74 -5 -90 26 -14 47 1 51 37 4 36 28 43
28 9 0 -14 -4 -26 -10 -26 -5 0 -10 -7 -10 -15 0 -8 4 -15 8 -15 17 0 32 25
32 55 0 52 -42 76 -59 33z"/>
<path d="M163 2275 c0 -8 6 -15 14 -15 7 0 13 7 13 15 0 8 -6 15 -13 15 -8 0
-14 -7 -14 -15z"/>
<path d="M210 2275 c0 -12 13 -15 60 -15 47 0 60 3 60 15 0 12 -13 15 -60 15
-47 0 -60 -3 -60 -15z"/>
<path d="M187 2212 c-11 -12 -17 -36 -17 -65 l0 -47 80 0 80 0 0 45 c0 60 -25
85 -83 85 -30 0 -49 -6 -60 -18z m111 -24 c16 -16 15 -58 0 -59 -7 -1 -34 -3
-60 -5 -47 -4 -48 -3 -48 24 0 37 17 52 60 52 20 0 41 -5 48 -12z"/>
<path d="M3000 463 c0 -7 11 -13 25 -13 24 0 25 -2 25 -70 0 -56 3 -70 15 -70
12 0 15 14 15 70 0 68 1 70 25 70 14 0 25 6 25 13 0 8 -20 12 -65 12 -45 0
-65 -4 -65 -12z"/>
<path d="M3150 465 c0 -8 7 -15 15 -15 8 0 15 7 15 15 0 8 -7 15 -15 15 -8 0
-15 -7 -15 -15z"/>
<path d="M3150 370 c0 -47 3 -60 15 -60 12 0 15 13 15 60 0 47 -3 60 -15 60
-12 0 -15 -13 -15 -60z"/>
<path d="M3220 370 c0 -43 4 -60 13 -60 9 0 12 15 11 53 -3 68 -2 67 -14 67
-6 0 -10 -27 -10 -60z"/>
<path d="M3255 420 c-3 -5 3 -10 14 -10 18 0 21 -6 21 -50 0 -37 4 -50 14 -50
11 0 16 14 18 48 2 34 7 47 18 47 11 0 16 -13 18 -47 2 -34 7 -48 18 -48 10 0
14 12 14 44 0 24 -3 51 -6 60 -7 19 -45 21 -62 4 -9 -9 -12 -9 -12 0 0 14 -46
16 -55 2z"/>
<path d="M3426 408 c-21 -30 -20 -54 4 -78 24 -24 62 -26 80 -5 10 13 7 14
-26 12 -30 -1 -39 2 -42 16 -2 11 2 18 10 16 41 -5 68 2 68 19 0 45 -67 59
-94 20z m68 -13 c4 -11 -2 -15 -24 -15 -29 0 -38 9 -23 23 12 12 41 7 47 -8z"/>
</g>
</svg>
