<?xml version="1.0" standalone="no"?>
<!DOCTYPE svg PUBLIC "-//W3C//DTD SVG 20010904//EN"
 "http://www.w3.org/TR/2001/REC-SVG-20010904/DTD/svg10.dtd">
<svg version="1.0" xmlns="http://www.w3.org/2000/svg"
 width="1249.712963pt" height="528.405921pt" viewBox="0 0 1249.712963 528.405921"
 preserveAspectRatio="xMidYMid meet">
<metadata>
Created by potrace 1.12, written by Peter Selinger 2001-2015
</metadata>
<g transform="translate(-65.287037,619.936915) scale(0.100000,-0.100000)"
fill="#000000" stroke="none">
<path d="M12110 6183 c-89 -31 -159 -93 -229 -202 -71 -111 -118 -255 -192
-593 l-32 -146 -106 -45 c-58 -25 -142 -58 -187 -73 l-81 -28 15 -48 c9 -26
19 -48 23 -48 10 0 189 71 252 100 27 12 50 20 53 18 2 -2 -5 -40 -16 -84 -67
-282 -77 -408 -36 -484 33 -62 88 -90 175 -90 75 0 134 19 208 67 71 46 238
224 222 237 -2 1 -22 16 -43 32 l-39 29 -21 -29 c-40 -56 -120 -141 -155 -165
-49 -34 -120 -40 -145 -12 -16 18 -18 32 -13 103 6 99 92 488 110 500 6 4 48
28 93 53 309 175 493 420 496 660 1 126 -37 202 -123 246 -47 24 -163 25 -229
2z m160 -103 c27 -27 33 -59 28 -153 -9 -149 -75 -291 -196 -419 -60 -63 -200
-174 -209 -165 -2 2 15 84 37 183 86 384 133 505 214 555 41 25 100 25 126 -1z"/>
<path d="M1092 3751 c-164 -51 -243 -144 -246 -291 -1 -63 4 -84 26 -130 35
-72 56 -91 222 -202 155 -104 192 -141 205 -211 18 -99 -19 -175 -107 -214
-48 -23 -64 -25 -147 -21 -147 6 -213 54 -235 170 -6 28 -10 52 -10 54 0 2
-21 4 -48 4 l-47 0 -29 -131 c-15 -72 -26 -133 -23 -136 11 -10 152 -43 230
-53 300 -37 507 24 585 175 23 43 26 63 27 145 0 84 -3 101 -27 146 -33 62
-101 125 -205 190 -107 66 -178 120 -200 152 -13 20 -18 46 -18 97 0 61 4 75
25 102 14 17 47 41 75 53 41 19 62 22 130 18 125 -7 189 -54 216 -162 l11 -46
52 0 52 0 23 118 c13 64 26 122 28 127 2 6 -38 21 -89 34 -132 34 -384 40
-476 12z"/>
<path d="M8240 3570 l0 -80 750 0 750 0 0 80 0 80 -750 0 -750 0 0 -80z"/>
<path d="M10610 3300 l0 -80 1270 0 1270 0 0 80 0 80 -1270 0 -1270 0 0 -80z"/>
<path d="M5135 3333 c-72 -3 -112 -8 -117 -16 -15 -24 -8 -37 22 -37 44 0 70
-31 70 -82 0 -42 -54 -306 -65 -316 -3 -3 -24 3 -47 14 -33 15 -65 19 -143 18
-89 0 -106 -4 -155 -28 -114 -58 -215 -188 -261 -336 -18 -60 -23 -99 -23
-195 -1 -111 1 -124 25 -170 38 -70 77 -96 154 -103 103 -8 184 41 308 188 21
25 35 36 31 25 -14 -42 -16 -116 -4 -145 20 -48 55 -70 113 -70 64 0 116 25
191 91 l58 52 -26 25 -25 26 -50 -47 c-50 -47 -87 -59 -120 -38 -28 18 -11
125 104 630 63 280 115 512 115 515 0 3 -10 5 -22 4 -13 -1 -72 -4 -133 -5z
m-192 -494 c39 -18 52 -54 50 -138 -6 -194 -103 -395 -237 -493 -51 -37 -122
-40 -154 -5 -61 65 -48 283 28 452 35 77 120 169 171 183 47 14 113 14 142 1z"/>
<path d="M5677 3185 c-10 -42 -17 -80 -17 -85 0 -6 33 -10 75 -10 73 0 75 1
81 28 10 46 25 106 30 125 5 15 -3 17 -74 17 l-79 0 -16 -75z"/>
<path d="M8240 3050 l0 -80 750 0 750 0 0 80 0 80 -750 0 -750 0 0 -80z"/>
<path d="M5614 2923 c-110 -4 -112 -4 -117 -28 -4 -22 -1 -25 22 -25 15 0 36
-6 47 -14 29 -22 23 -83 -35 -338 -54 -240 -62 -319 -35 -370 27 -52 53 -67
113 -68 68 0 118 23 195 91 l58 52 -26 25 -25 26 -50 -47 c-50 -47 -87 -59
-120 -38 -26 17 -14 111 54 413 37 161 68 301 71 311 4 13 0 17 -18 15 -13 -1
-73 -4 -134 -5z"/>
<path d="M1855 2900 c-40 -18 -155 -114 -155 -130 0 -4 12 -15 26 -25 25 -16
26 -16 74 29 78 73 130 61 130 -31 0 -21 -30 -164 -66 -318 -35 -154 -68 -292
-71 -307 l-5 -28 76 0 c42 0 76 2 76 5 0 16 83 379 97 420 51 160 180 305 271
305 49 0 70 -15 83 -62 14 -53 10 -79 -62 -395 -32 -145 -59 -265 -59 -268 0
-3 34 -5 75 -5 41 0 75 2 75 4 0 23 94 433 105 460 24 56 99 167 136 202 56
51 81 64 125 64 34 0 47 -5 63 -26 32 -40 27 -108 -23 -310 -55 -223 -61 -260
-46 -312 17 -65 53 -92 123 -92 38 0 71 7 96 20 40 20 151 116 151 130 0 15
-54 44 -58 31 -7 -22 -95 -81 -121 -81 -66 0 -66 43 -1 310 29 119 50 228 50
260 0 67 -23 116 -71 148 -30 21 -43 23 -104 20 -45 -3 -84 -12 -110 -26 -44
-23 -116 -88 -156 -140 l-26 -34 -6 52 c-13 107 -73 156 -182 148 -96 -8 -178
-61 -262 -171 -25 -32 -47 -57 -48 -55 -2 2 1 23 6 48 14 62 3 115 -33 150
-25 26 -37 30 -81 29 -29 0 -70 -9 -92 -19z"/>
<path d="M3657 2909 c-128 -30 -258 -139 -320 -269 -54 -114 -70 -188 -64
-297 5 -80 10 -100 37 -148 46 -81 95 -107 213 -112 75 -4 103 -1 151 16 73
26 139 67 191 121 l39 40 -26 27 -26 26 -43 -37 c-24 -20 -70 -50 -103 -66
-49 -25 -72 -30 -129 -30 -120 0 -157 42 -157 180 0 111 -1 110 84 110 218 1
393 68 448 172 30 58 31 165 1 206 -38 51 -89 72 -178 71 -44 -1 -97 -5 -118
-10z m148 -84 c24 -23 29 -46 25 -110 -6 -100 -143 -175 -321 -175 -33 0 -59
4 -59 9 0 21 48 121 81 168 62 90 127 132 202 133 38 0 53 -5 72 -25z"/>
<path d="M6380 2911 c-138 -30 -275 -179 -331 -361 -18 -60 -23 -99 -23 -195
-1 -111 1 -124 25 -170 38 -70 77 -96 154 -103 103 -8 184 41 308 188 21 25
35 36 31 25 -14 -42 -16 -116 -4 -145 20 -49 55 -70 114 -70 67 1 118 25 189
90 l58 53 -25 25 -25 26 -50 -47 c-35 -33 -58 -47 -78 -47 -79 1 -77 33 27
469 33 139 57 257 54 262 -10 17 -56 9 -90 -17 l-34 -26 -53 22 c-56 25 -181
36 -247 21z m184 -76 c38 -25 50 -66 43 -153 -15 -186 -114 -382 -241 -474
-51 -37 -122 -40 -154 -5 -62 66 -47 284 31 460 31 69 120 162 168 175 53 16
127 14 153 -3z"/>
<path d="M11317 2603 c-25 -41 -647 -1620 -647 -1643 l0 -30 670 0 670 0 0 43
c1 29 -80 293 -257 840 l-258 797 -87 0 c-48 0 -89 -3 -91 -7z m236 -874 c104
-325 187 -592 184 -595 -2 -2 -193 -3 -423 -2 l-419 3 229 593 c126 325 232
592 235 592 3 0 91 -266 194 -591z"/>
<path d="M12571 2348 c-28 -92 -74 -200 -99 -230 -34 -40 -95 -68 -154 -68
-52 0 -53 -1 -63 -47 l-7 -33 101 0 c56 0 101 -4 101 -8 0 -5 -35 -159 -77
-343 -72 -308 -78 -342 -78 -444 0 -102 2 -113 28 -157 18 -31 44 -57 75 -75
43 -26 55 -28 147 -28 93 1 104 3 164 34 43 22 94 62 153 121 48 49 88 92 87
97 0 4 -15 20 -34 36 l-33 27 -64 -64 c-77 -77 -130 -106 -195 -106 -58 0 -90
19 -109 66 -29 69 -14 167 94 634 l48 205 186 3 186 2 11 45 c20 80 32 75
-169 75 -147 0 -180 3 -180 14 0 8 14 73 30 146 17 73 30 134 30 136 0 2 -38
4 -83 4 l-84 0 -12 -42z"/>
</g>
</svg>
