<?xml version="1.0" standalone="no"?>
<!DOCTYPE svg PUBLIC "-//W3C//DTD SVG 20010904//EN"
 "http://www.w3.org/TR/2001/REC-SVG-20010904/DTD/svg10.dtd">
<svg version="1.0" xmlns="http://www.w3.org/2000/svg"
 width="697.000000pt" height="434.166536pt" viewBox="0 0 697.000000 434.166536"
 preserveAspectRatio="xMidYMid meet">
<metadata>
Created by potrace 1.12, written by Peter Selinger 2001-2015
</metadata>
<g transform="translate(-30.000000,467.083268) scale(0.100000,-0.100000)"
fill="#000000" stroke="none">
<path d="M3547 4670 c-11 -26 -67 -244 -67 -257 0 -8 13 -13 30 -13 l30 0 0
-530 c0 -347 3 -530 10 -530 7 0 10 183 10 530 l0 530 29 0 c17 0 32 3 34 8 2
4 -13 68 -34 142 -20 74 -39 128 -42 120z"/>
<path d="M3870 4090 l0 -190 25 0 25 0 0 147 0 146 98 -144 c81 -119 103 -145
125 -147 l27 -3 0 190 0 191 -25 0 -24 0 -3 -144 -3 -144 -98 144 c-81 119
-102 144 -123 144 l-24 0 0 -190z"/>
<path d="M5010 4080 c0 -73 3 -90 15 -90 12 0 15 14 15 67 l0 68 45 -68 c63
-93 75 -90 75 23 0 73 -3 90 -15 90 -12 0 -15 -14 -15 -67 l0 -68 -45 68 c-63
93 -75 90 -75 -23z"/>
<path d="M5470 4080 c0 -105 18 -123 22 -22 l3 67 45 -67 c25 -37 51 -68 58
-68 9 0 12 25 12 90 0 105 -18 123 -22 23 l-3 -68 -45 67 c-25 37 -51 68 -57
68 -10 0 -13 -25 -13 -90z"/>
<path d="M6205 4080 c0 -65 3 -90 13 -90 9 0 12 25 12 90 0 65 -3 90 -12 90
-10 0 -13 -25 -13 -90z"/>
<path d="M6330 4080 c0 -73 3 -90 15 -90 11 0 15 11 15 40 0 36 3 40 25 40 18
0 32 -11 51 -40 15 -22 33 -40 41 -40 15 0 13 6 -18 51 -18 26 -18 27 1 44 47
43 10 85 -73 85 l-57 0 0 -90z m115 40 c0 -22 -5 -25 -42 -28 -42 -3 -43 -2
-43 28 0 30 1 31 43 28 37 -3 42 -6 42 -28z"/>
<path d="M6970 4160 c0 -5 7 -10 15 -10 8 0 15 5 15 10 0 6 -7 10 -15 10 -8 0
-15 -4 -15 -10z"/>
<path d="M6915 4145 c-5 -11 -13 -23 -19 -27 -8 -6 -7 -10 1 -16 6 -4 13 -30
15 -57 3 -43 6 -50 26 -53 12 -2 22 1 22 7 0 6 -7 11 -15 11 -11 0 -15 12 -15
45 0 33 4 45 15 45 8 0 15 5 15 10 0 6 -6 10 -14 10 -8 0 -16 10 -19 23 -3 21
-4 21 -12 2z"/>
<path d="M5250 4110 c0 -6 27 -10 60 -10 33 0 60 4 60 10 0 6 -27 10 -60 10
-33 0 -60 -4 -60 -10z"/>
<path d="M5657 4102 c-22 -25 -21 -75 1 -95 42 -38 102 -8 102 50 0 55 -67 85
-103 45z m74 -23 c8 -16 8 -28 0 -45 -18 -41 -71 -25 -71 21 0 44 50 61 71 24z"/>
<path d="M5780 4053 c0 -45 4 -63 13 -63 9 0 12 11 9 34 -4 39 12 76 33 76 8
0 15 4 15 10 0 5 -16 9 -35 8 l-35 -1 0 -64z"/>
<path d="M5860 4053 c0 -48 3 -63 14 -63 11 0 16 15 18 53 3 44 6 52 23 52 17
0 20 -8 23 -52 2 -37 7 -53 17 -53 10 0 15 16 17 53 3 44 6 52 23 52 17 0 20
-8 23 -52 4 -73 22 -67 22 7 0 55 -2 60 -25 66 -14 3 -31 1 -39 -5 -9 -7 -17
-8 -20 -2 -3 5 -26 9 -51 9 l-45 -1 0 -64z"/>
<path d="M6080 4105 c-17 -21 -7 -29 18 -14 20 13 52 7 52 -10 0 -6 -16 -13
-35 -17 -40 -7 -58 -30 -44 -56 7 -13 21 -17 59 -15 l50 2 0 51 c0 27 -5 55
-12 62 -17 17 -73 15 -88 -3z m59 -86 c-22 -14 -49 -11 -49 5 0 9 12 16 28 18
30 3 42 -10 21 -23z"/>
<path d="M6517 4102 c-22 -25 -21 -75 1 -95 25 -23 65 -21 87 3 16 17 16 20 2
20 -9 0 -19 -4 -22 -10 -11 -17 -44 -11 -55 10 -10 19 -8 20 40 20 54 0 61 9
34 48 -19 27 -64 29 -87 4z m71 -19 c2 -9 -8 -13 -33 -13 -33 0 -36 2 -25 15
15 18 51 16 58 -2z"/>
<path d="M6655 4104 c-22 -22 -11 -30 19 -14 25 13 56 8 56 -9 0 -5 -15 -12
-34 -15 -43 -8 -64 -31 -49 -54 13 -21 50 -27 69 -12 10 9 14 9 14 1 0 -6 6
-11 13 -11 15 0 11 98 -5 118 -15 17 -64 15 -83 -4z m75 -63 c0 -14 -28 -33
-45 -29 -24 5 -20 22 7 30 34 9 38 9 38 -1z"/>
<path d="M6796 4107 c-12 -9 -18 -26 -18 -52 0 -62 63 -90 97 -43 19 28 0 39
-20 12 -18 -24 -49 -8 -53 28 -4 34 23 56 49 40 30 -19 44 -14 24 8 -21 23
-53 26 -79 7z"/>
<path d="M6975 4055 c0 -45 4 -65 13 -65 8 0 12 20 12 65 0 45 -4 65 -12 65
-9 0 -13 -20 -13 -65z"/>
<path d="M7049 4110 c-40 -23 -29 -105 15 -116 55 -13 94 32 74 86 -14 39 -52
52 -89 30z m59 -22 c30 -30 2 -86 -38 -73 -15 5 -20 15 -20 40 0 41 32 59 58
33z"/>
<path d="M7160 4054 c0 -49 3 -64 14 -64 11 0 16 15 18 53 3 48 5 52 28 52 23
0 25 -4 28 -52 4 -69 22 -68 22 1 0 63 -11 75 -68 74 l-42 0 0 -64z"/>
<path d="M5250 4050 c0 -6 27 -10 60 -10 33 0 60 4 60 10 0 6 -27 10 -60 10
-33 0 -60 -4 -60 -10z"/>
<path d="M2928 2515 l-3 -656 -1312 1 c-1166 0 -1313 -1 -1313 -15 0 -13 376
-15 3450 -15 3067 0 3450 2 3450 15 0 13 -166 15 -1470 13 l-1470 -3 0 658 0
657 -665 0 -665 0 -2 -655z m1302 -15 l0 -640 -640 0 -640 0 0 640 0 640 640
0 640 0 0 -640z"/>
<path d="M3540 1130 l0 -530 -30 0 c-17 0 -30 -5 -30 -12 0 -13 56 -231 66
-258 4 -8 23 46 43 120 21 74 36 138 34 143 -2 4 -17 7 -34 7 l-29 0 0 530 c0
347 -3 530 -10 530 -7 0 -10 -183 -10 -530z"/>
<path d="M3840 1633 c0 -5 20 -84 45 -176 25 -93 45 -175 45 -183 0 -9 11 -14
30 -14 25 0 30 5 38 33 5 19 25 91 43 160 19 70 36 127 39 127 3 0 20 -57 39
-128 19 -70 38 -142 43 -159 7 -26 14 -33 33 -33 27 0 23 -11 90 235 19 71 35
133 35 137 0 5 -10 8 -23 8 -21 0 -26 -11 -62 -159 l-39 -159 -33 127 c-18 69
-36 140 -41 156 -7 24 -15 31 -39 33 -23 2 -33 -2 -37 -15 -14 -46 -75 -270
-78 -288 -4 -19 -10 3 -58 213 -20 85 -24 92 -46 92 -13 0 -24 -3 -24 -7z"/>
<path d="M5188 1340 c16 -58 32 -100 39 -100 11 0 25 39 51 140 l9 35 17 -57
c9 -32 19 -71 22 -88 4 -16 13 -30 20 -30 12 0 18 14 45 123 5 23 12 50 15 60
3 10 0 17 -8 17 -8 0 -20 -30 -32 -82 l-19 -83 -21 80 c-31 111 -46 110 -76
-2 -13 -48 -24 -83 -26 -78 -1 6 -10 45 -19 88 -10 49 -21 77 -30 77 -10 0 -7
-23 13 -100z"/>
<path d="M5730 1432 c0 -6 31 -125 46 -174 11 -38 31 -16 49 55 24 95 31 107
38 68 15 -72 39 -141 50 -141 7 0 23 44 38 100 18 72 22 100 13 100 -7 0 -21
-35 -32 -82 -11 -46 -22 -76 -25 -68 -3 8 -13 46 -23 83 -24 93 -41 87 -69
-22 l-22 -85 -16 73 c-10 41 -17 80 -17 87 0 8 -7 14 -15 14 -8 0 -15 -3 -15
-8z"/>
<path d="M6140 1430 c0 -5 7 -10 15 -10 8 0 15 5 15 10 0 6 -7 10 -15 10 -8 0
-15 -4 -15 -10z"/>
<path d="M6350 1340 c0 -82 3 -100 15 -100 12 0 15 13 15 59 0 51 3 61 20 66
32 10 40 -3 40 -66 0 -46 3 -59 15 -59 12 0 15 13 15 59 0 71 -18 96 -62 87
-26 -5 -28 -3 -28 24 0 20 -5 30 -15 30 -12 0 -15 -18 -15 -100z"/>
<path d="M6518 1434 c-5 -4 -8 -15 -8 -25 0 -9 -6 -20 -12 -22 -10 -4 -10 -7
-1 -14 6 -5 13 -35 15 -68 3 -53 5 -60 26 -63 12 -2 22 1 22 7 0 6 -7 11 -15
11 -12 0 -15 13 -15 55 0 42 3 55 15 55 8 0 15 5 15 10 0 6 -6 10 -14 10 -8 0
-16 12 -18 26 -2 14 -6 22 -10 18z"/>
<path d="M6012 1374 c-17 -12 -22 -25 -22 -59 0 -34 5 -47 22 -59 28 -20 58
-20 84 -2 27 20 14 28 -23 14 -25 -9 -35 -9 -47 1 -31 26 -19 41 34 41 46 0
50 2 50 24 0 26 -33 56 -60 56 -9 0 -26 -7 -38 -16z m66 -16 c21 -21 13 -28
-28 -28 -22 0 -40 4 -40 8 0 14 23 32 40 32 9 0 21 -5 28 -12z"/>
<path d="M6140 1315 c0 -60 3 -75 15 -75 12 0 15 15 15 75 0 60 -3 75 -15 75
-12 0 -15 -15 -15 -75z"/>
<path d="M6214 1369 c-43 -47 -7 -136 49 -125 23 5 28 3 25 -12 -4 -22 -41
-27 -58 -7 -16 19 -30 19 -30 0 0 -35 69 -46 100 -15 17 17 20 33 20 98 l0 79
-44 1 c-32 0 -50 -5 -62 -19z m65 -13 c17 -20 10 -77 -11 -89 -24 -16 -48 8
-48 47 0 49 34 73 59 42z"/>
<path d="M5500 1370 c0 -6 28 -10 65 -10 37 0 65 4 65 10 0 6 -28 10 -65 10
-37 0 -65 -4 -65 -10z"/>
<path d="M5500 1310 c0 -6 28 -10 65 -10 37 0 65 4 65 10 0 6 -28 10 -65 10
-37 0 -65 -4 -65 -10z"/>
</g>
</svg>
