<?xml version="1.0" standalone="no"?>
<!DOCTYPE svg PUBLIC "-//W3C//DTD SVG 20010904//EN"
 "http://www.w3.org/TR/2001/REC-SVG-20010904/DTD/svg10.dtd">
<svg version="1.0" xmlns="http://www.w3.org/2000/svg"
 width="299.744660pt" height="198.855164pt" viewBox="0 0 299.744660 198.855164"
 preserveAspectRatio="xMidYMid meet">
<metadata>
Created by potrace 1.12, written by Peter Selinger 2001-2015
</metadata>
<g transform="translate(-15.067890,203.000000) scale(0.100000,-0.100000)"
fill="#000000" stroke="none">
<path d="M946 1994 c-9 -20 -15 -39 -12 -42 3 -3 9 4 13 14 5 10 10 -363 13
-831 l5 -850 1069 -3 c947 -2 1067 -4 1056 -17 -16 -19 -7 -19 30 0 38 19 37
26 -1 49 -30 18 -57 14 -29 -4 9 -6 -388 -10 -1047 -10 l-1063 0 0 836 c0 742
2 835 15 824 8 -7 15 -10 15 -7 0 12 -34 77 -40 77 -3 0 -14 -16 -24 -36z"/>
<path d="M1060 1511 c0 -122 53 -313 121 -441 180 -334 554 -585 982 -660 147
-25 307 -36 307 -21 0 6 -19 11 -45 11 -73 0 -233 20 -326 40 -312 69 -608
244 -785 464 -112 139 -181 282 -215 441 -10 50 -19 114 -19 143 0 28 -4 52
-10 52 -5 0 -10 -13 -10 -29z"/>
<path d="M463 1265 c0 -33 2 -45 4 -27 2 18 2 45 0 60 -2 15 -4 0 -4 -33z"/>
<path d="M166 1267 c-18 -48 -21 -71 -5 -44 13 22 45 22 53 1 4 -9 9 -14 12
-11 8 7 -26 97 -36 97 -4 0 -15 -19 -24 -43z m37 3 c4 -15 0 -20 -13 -20 -13
0 -17 5 -13 20 3 11 9 20 13 20 4 0 10 -9 13 -20z"/>
<path d="M697 1292 c-2 -4 -2 -24 0 -44 4 -27 10 -38 22 -37 10 0 11 2 4 6
-16 6 -17 60 -1 65 8 3 6 7 -5 11 -9 3 -18 3 -20 -1z"/>
<path d="M263 1283 c-19 -7 -16 -62 3 -70 8 -3 20 -1 26 5 7 7 4 10 -8 9 -13
-1 -20 6 -22 21 -3 17 2 22 18 22 12 0 18 5 15 10 -7 11 -13 11 -32 3z"/>
<path d="M320 1275 c-18 -21 -4 -65 20 -65 10 0 21 4 24 9 4 5 -2 7 -13 4 -11
-3 -21 2 -25 12 -8 23 11 46 31 38 11 -4 14 -2 9 5 -10 16 -31 15 -46 -3z"/>
<path d="M392 1281 c-20 -12 -11 -65 12 -69 10 -2 22 0 27 5 6 6 1 9 -13 9
-14 -1 -24 6 -26 18 -5 23 12 41 29 30 9 -5 8 -9 -7 -15 -17 -7 -17 -8 4 -8
24 -1 28 9 10 27 -14 14 -19 15 -36 3z"/>
<path d="M500 1276 c-20 -26 -8 -61 23 -64 15 -2 27 1 27 6 0 5 -8 8 -17 8
-27 -1 -31 19 -5 22 25 4 30 27 6 36 -21 8 -20 8 -34 -8z"/>
<path d="M571 1245 c2 -31 3 -34 6 -12 3 16 11 31 19 34 21 8 17 22 -6 20 -17
-1 -20 -8 -19 -42z"/>
<path d="M624 1279 c-5 -9 -2 -10 9 -6 27 10 28 -9 1 -22 -32 -14 -26 -36 10
-37 25 -1 27 2 24 35 -3 37 -29 54 -44 30z m28 -51 c-6 -6 -16 -7 -22 -3 -9 6
-9 9 1 16 17 10 34 0 21 -13z"/>
<path d="M753 1250 c0 -25 2 -35 4 -22 2 12 2 32 0 45 -2 12 -4 2 -4 -23z"/>
<path d="M791 1276 c-21 -25 -10 -61 18 -61 31 0 50 28 35 53 -15 23 -38 26
-53 8z m37 -32 c-4 -25 -32 -24 -36 0 -4 21 18 40 31 27 5 -5 7 -17 5 -27z"/>
<path d="M865 1282 c-9 -10 -5 -72 5 -72 6 0 10 14 10 30 0 42 27 40 33 -2 4
-27 4 -25 3 7 -1 34 -4 40 -23 41 -12 1 -25 -1 -28 -4z"/>
<path d="M470 1106 c-13 -35 -13 -67 0 -102 14 -36 20 -27 11 16 -4 19 -4 51
0 70 10 43 3 52 -11 16z"/>
<path d="M594 1062 c1 -38 4 -65 8 -59 10 15 9 86 -1 111 -4 10 -7 -12 -7 -52z"/>
<path d="M510 1081 c0 -5 9 -7 20 -4 11 3 20 0 20 -6 0 -6 -6 -11 -14 -11 -7
0 -19 -6 -25 -14 -13 -16 3 -33 32 -33 13 0 17 9 17 39 0 34 -3 38 -25 38 -14
0 -25 -4 -25 -9z m40 -41 c0 -5 -7 -10 -15 -10 -8 0 -15 5 -15 10 0 6 7 10 15
10 8 0 15 -4 15 -10z"/>
<path d="M2266 154 c-9 -22 -7 -97 2 -111 5 -7 8 19 8 57 -1 39 -2 70 -2 70
-1 0 -5 -7 -8 -16z"/>
<path d="M2445 105 c0 -35 3 -58 7 -52 4 7 8 30 8 52 0 22 -4 45 -8 52 -4 6
-7 -17 -7 -52z"/>
<path d="M1890 110 c0 -57 20 -69 21 -12 l0 37 19 -40 18 -40 19 45 18 45 6
-45 6 -45 1 53 c2 61 -11 67 -34 15 l-16 -38 -15 38 c-22 55 -43 49 -43 -13z"/>
<path d="M2030 131 c0 -6 6 -8 14 -5 8 3 17 1 21 -5 3 -6 0 -11 -8 -11 -8 0
-20 -6 -26 -14 -13 -16 3 -33 32 -33 15 0 17 7 15 36 -2 29 -8 37 -25 39 -13
2 -23 -1 -23 -7z m38 -43 c-6 -18 -28 -21 -28 -4 0 9 7 16 16 16 9 0 14 -5 12
-12z"/>
<path d="M2104 129 c-4 -7 3 -19 15 -28 24 -18 19 -33 -7 -24 -13 4 -14 3 -6
-6 12 -13 44 -4 44 13 0 6 -10 18 -22 25 l-23 15 25 7 c23 6 23 7 3 8 -12 1
-25 -4 -29 -10z"/>
<path d="M2170 121 c0 -10 7 -22 16 -25 21 -8 8 -27 -14 -19 -13 5 -15 3 -5
-7 15 -16 43 -6 43 15 0 9 -7 18 -15 21 -20 8 -19 21 3 27 13 4 11 5 -5 6 -16
1 -23 -5 -23 -18z"/>
<path d="M2311 96 l2 -41 6 34 c9 49 31 52 32 4 l2 -38 6 35 c4 22 12 35 21
35 9 0 18 -13 22 -35 l6 -35 -1 40 -2 40 -47 1 -48 1 1 -41z"/>
</g>
</svg>
