<?xml version="1.0" standalone="no"?>
<!DOCTYPE svg PUBLIC "-//W3C//DTD SVG 20010904//EN"
 "http://www.w3.org/TR/2001/REC-SVG-20010904/DTD/svg10.dtd">
<svg version="1.0" xmlns="http://www.w3.org/2000/svg"
 width="423.000000pt" height="156.000000pt" viewBox="0 0 423.000000 156.000000"
 preserveAspectRatio="xMidYMid meet">
<metadata>
Created by potrace 1.12, written by Peter Selinger 2001-2015
</metadata>
<g transform="translate(-8.000000,199.000000) scale(0.100000,-0.100000)"
fill="#000000" stroke="none">
<path d="M1770 1830 l0 -160 -430 0 -430 0 0 -605 0 -605 -415 0 c-362 0 -415
-2 -415 -15 0 -13 242 -15 2115 -15 1873 0 2115 2 2115 15 0 13 -53 15 -415
15 l-415 0 0 765 0 765 -855 0 -855 0 0 -160z m1680 -615 l0 -745 -822 2 -823
3 -3 243 -2 242 95 0 95 0 0 -41 c0 -22 3 -39 8 -37 27 12 143 81 147 88 3 4
-31 28 -75 53 l-80 46 0 -40 0 -39 -95 0 -95 0 0 110 0 110 180 0 c153 0 180
2 180 15 0 13 -27 15 -180 15 l-180 0 0 360 0 360 825 0 825 0 0 -745z m-1680
225 l0 -200 -25 0 c-23 0 -25 4 -25 41 0 22 -4 39 -9 37 -21 -7 -151 -83 -151
-88 0 -3 36 -26 80 -52 l80 -47 0 40 c0 35 3 39 25 39 l25 0 0 -110 0 -110
-110 0 c-91 0 -110 -3 -110 -15 0 -12 19 -15 110 -15 l110 0 0 -245 0 -245
-415 0 -415 0 0 585 0 585 415 0 415 0 0 -200z"/>
<path d="M1870 1470 c0 -63 3 -80 14 -80 9 0 16 12 18 33 3 28 7 32 36 35 43
4 41 22 -3 22 -28 0 -35 4 -35 20 0 17 7 20 40 20 29 0 40 4 40 15 0 12 -13
15 -55 15 l-55 0 0 -80z"/>
<path d="M2015 1390 c-16 -7 -17 -9 -3 -9 12 -1 18 -12 21 -38 3 -35 4 -34 5
10 1 26 1 47 0 46 -2 0 -12 -4 -23 -9z"/>
<path d="M2574 1237 c-3 -8 -4 -45 -2 -83 l3 -69 43 -3 c28 -2 53 3 68 13 24
16 32 49 14 60 -5 3 -7 19 -3 35 3 18 0 36 -7 45 -16 20 -108 21 -116 2z m91
-37 c0 -9 -11 -16 -27 -18 -23 -3 -28 1 -28 18 0 17 5 21 28 18 16 -2 27 -9
27 -18z m3 -67 c-2 -11 -14 -19 -31 -21 -22 -3 -27 1 -27 17 0 17 6 21 31 21
24 0 30 -4 27 -17z"/>
<path d="M1877 813 c-4 -3 -7 -39 -7 -80 0 -58 3 -73 15 -73 10 0 15 10 15 30
0 28 3 30 35 30 24 0 35 5 35 15 0 10 -11 15 -35 15 -28 0 -35 4 -35 20 0 17
7 20 40 20 29 0 40 4 40 15 0 11 -12 15 -48 15 -27 0 -52 -3 -55 -7z"/>
<path d="M2007 663 c-4 -3 -7 -11 -7 -17 0 -6 5 -5 12 2 7 7 16 12 20 12 15 0
8 -27 -12 -45 -28 -26 -25 -35 13 -34 25 1 27 3 9 6 l-24 5 22 23 c13 14 20
31 17 39 -6 16 -38 22 -50 9z"/>
<path d="M1287 1073 c-15 -43 -27 -81 -27 -85 0 -16 30 -7 40 12 6 12 21 20
36 20 17 0 28 -7 31 -20 3 -12 14 -20 25 -20 12 0 18 5 15 13 -2 6 -15 45 -28
85 -19 60 -27 72 -44 72 -18 0 -26 -13 -48 -77z m62 -15 c1 -5 -6 -8 -14 -8
-16 0 -19 9 -8 36 6 16 7 16 14 -2 4 -10 8 -22 8 -26z"/>
</g>
</svg>
